<svg width="42" height="43" viewBox="0 0 42 43" fill="none" xmlns="http://www.w3.org/2000/svg">
<rect y="0.5" width="42" height="42" rx="16" fill="#7FA1C4"/>
<path d="M21 18.4039L5.39866 12.791M21 18.4039L36.6062 12.8096M21 18.4039V37.0385M8.98621 33.0099L19.1362 36.5923C19.8269 36.836 20.1722 36.9579 20.5264 37.0063C20.8407 37.0492 21.1593 37.0492 21.4736 37.0063C21.8278 36.9579 22.1731 36.836 22.8638 36.5923L33.0138 33.0099C34.359 32.5351 35.0316 32.2978 35.5281 31.8721C35.9666 31.4961 36.3053 31.0175 36.5138 30.4788C36.75 29.8689 36.75 29.1557 36.75 27.7292V15.271C36.75 13.8445 36.75 13.1312 36.5138 12.5213C36.3053 11.9827 35.9666 11.504 35.5281 11.1281C35.0316 10.7024 34.359 10.465 33.0138 9.99024L22.8638 6.40788C22.1731 6.16411 21.8278 6.04222 21.4736 5.99385C21.1593 5.95094 20.8407 5.95094 20.5264 5.99385C20.1722 6.04222 19.8269 6.16411 19.1362 6.40788L8.98621 9.99023C7.64102 10.465 6.96842 10.7024 6.47192 11.1281C6.0334 11.504 5.69474 11.9827 5.48616 12.5213C5.25 13.1312 5.25 13.8445 5.25 15.271V27.7292C5.25 29.1557 5.25 29.8689 5.48616 30.4788C5.69474 31.0175 6.0334 31.4961 6.47192 31.8721C6.96842 32.2978 7.64101 32.5351 8.98621 33.0099Z" stroke="#1D2E49" stroke-width="2" stroke-linecap="round" stroke-linejoin="round"/>
</svg>
