<svg width="33" height="32" viewBox="0 0 33 32" fill="none" xmlns="http://www.w3.org/2000/svg">
<path d="M4.58447 7.33333C4.58447 18.7472 13.8373 28 25.2511 28C25.7661 28 26.2767 27.9812 26.7822 27.9441C27.3623 27.9017 27.6524 27.8804 27.9164 27.7284C28.1351 27.6025 28.3425 27.3793 28.4521 27.152C28.5845 26.8776 28.5845 26.5575 28.5845 25.9173V22.1609C28.5845 21.6226 28.5845 21.3534 28.4959 21.1226C28.4176 20.9188 28.2905 20.7373 28.1257 20.5941C27.9391 20.432 27.6861 20.34 27.1802 20.156L27.1802 20.156L22.9044 18.6012C22.3158 18.3871 22.0215 18.2801 21.7422 18.2983C21.496 18.3143 21.259 18.3983 21.0577 18.541C20.8294 18.7029 20.6683 18.9714 20.3461 19.5085L20.346 19.5085L19.2511 21.3333C15.718 19.7332 12.8537 16.8652 11.2511 13.3333L13.076 12.2384C13.6131 11.9162 13.8816 11.755 14.0434 11.5267C14.1861 11.3254 14.2702 11.0885 14.2862 10.8423C14.3044 10.563 14.1973 10.2687 13.9833 9.68006L12.4285 5.40428C12.2445 4.89835 12.1525 4.64538 11.9904 4.4588C11.8472 4.29399 11.6657 4.16686 11.4618 4.0886C11.2311 4 10.9619 4 10.4236 4H6.66716C6.02698 4 5.70689 4 5.43244 4.13234C5.20514 4.24194 4.98199 4.44935 4.85608 4.66804C4.70405 4.93209 4.68281 5.22216 4.64032 5.8023C4.60331 6.30781 4.58447 6.81837 4.58447 7.33333Z" stroke="#F5ECED" stroke-width="2" stroke-linecap="round" stroke-linejoin="round"/>
</svg>
