<svg width="307" height="221" viewBox="0 0 307 221" fill="none" xmlns="http://www.w3.org/2000/svg">
<path d="M264.699 145.938C265.09 145.938 265.448 145.97 265.773 146.035C266.62 146.165 267.043 146.979 267.043 148.477H243.02V145.938C243.866 145.938 244.615 145.872 245.266 145.742C247.544 145.352 248.684 143.724 248.684 140.859V109.023H243.02V106.484H261.086V145.938H264.699ZM261.965 93.6914C261.965 94.9284 261.639 96.1003 260.988 97.207C259.621 99.6159 257.505 100.82 254.641 100.82C253.469 100.82 252.329 100.527 251.223 99.9414C248.684 98.6393 247.414 96.556 247.414 93.6914C247.414 92.4544 247.707 91.2826 248.293 90.1758C249.725 87.6367 251.841 86.3672 254.641 86.3672C255.878 86.3672 257.049 86.6927 258.156 87.3438C260.695 88.7109 261.965 90.8268 261.965 93.6914Z" fill="#F5ECED"/>
<path d="M213.918 145.84L226.418 145.938L226.125 145.84C230.161 145.775 232.798 143.691 234.035 139.59L236.086 131.875H238.625L238.43 148.477H200.832V146.328L226.906 109.121H215.285C212.551 109.186 210.402 110.749 208.84 113.809L205.52 121.035H203.078L203.762 106.484H238.918V108.535L213.918 145.84Z" fill="#F5ECED"/>
<path d="M195.363 145.938C195.819 145.938 196.21 145.97 196.535 146.035C197.316 146.23 197.707 147.044 197.707 148.477H180.324L179.836 140.469C179.641 140.859 179.445 141.25 179.25 141.641C176.19 146.849 171.73 149.453 165.871 149.453C156.691 149.388 152.036 144.082 151.906 133.535V109.023H146.242V106.484H164.309V135.195C164.309 136.107 164.374 136.986 164.504 137.832C165.155 142.194 167.336 144.375 171.047 144.375C172.023 144.375 173 144.147 173.977 143.691C177.232 142.064 179.087 138.711 179.543 133.633L179.641 109.023H174.855V106.484H192.043V145.938H195.363Z" fill="#F5ECED"/>
<path d="M140.676 145.938C141.066 145.938 141.424 145.97 141.75 146.035C142.596 146.165 143.02 146.979 143.02 148.477H115.773V145.938C117.596 145.938 119.061 145.807 120.168 145.547C122.316 144.961 123.391 143.333 123.391 140.664V87.5391H115.773V85H135.793V145.938H140.676Z" fill="#F5ECED"/>
<path d="M104.055 149.453C98.8464 149.128 95.5586 146.165 94.1914 140.566C93.8659 141.478 93.4427 142.357 92.9219 143.203C90.3177 147.37 86.2487 149.453 80.7148 149.453C78.8919 149.453 77.2318 149.225 75.7344 148.77C70.6562 147.142 68.1172 143.431 68.1172 137.637C68.1823 129.108 76.5807 124.681 93.3125 124.355V118.008C93.3125 116.12 93.1823 114.492 92.9219 113.125C92.2708 109.414 90.4154 107.559 87.3555 107.559C86.444 107.559 85.6302 107.721 84.9141 108.047C83.8073 108.698 82.8958 110.326 82.1797 112.93C81.9193 113.841 81.724 114.492 81.5938 114.883C80.6172 117.617 78.7292 118.984 75.9297 118.984C75.2786 118.984 74.6602 118.887 74.0742 118.691C71.6654 118.04 70.4609 116.445 70.4609 113.906C70.4609 112.799 70.7539 111.758 71.3398 110.781C73.6185 106.94 79.1849 105.02 88.0391 105.02C90.3177 105.02 92.4336 105.247 94.3867 105.703C101.939 107.591 105.715 112.604 105.715 120.742V141.152C105.715 144.277 106.431 145.905 107.863 146.035C109.751 145.97 110.891 143.691 111.281 139.199L113.82 139.297C113.625 141.315 113.332 142.975 112.941 144.277C111.77 147.728 108.807 149.453 104.055 149.453ZM85.793 145.254C86.2487 145.254 86.7695 145.156 87.3555 144.961C90.0898 143.919 92.0755 141.12 93.3125 136.562V127.09C90.3828 127.22 87.974 127.578 86.0859 128.164C82.5703 129.466 80.8125 132.266 80.8125 136.562C80.8776 142.227 82.5378 145.124 85.793 145.254Z" fill="#F5ECED"/>
<path d="M64.6992 92.5195H57.375V129.043C57.375 133.405 56.6589 137.181 55.2266 140.371C52.1667 147.077 46.2422 150.43 37.4531 150.43C33.7422 150.43 30.6172 149.779 28.0781 148.477C24.6927 146.784 23 144.44 23 141.445C23 140.794 23.0977 140.143 23.293 139.492C24.0742 137.214 25.7344 136.074 28.2734 136.074C29.901 136.074 31.2357 136.4 32.2773 137.051C33.5794 137.962 34.4583 139.948 34.9141 143.008C35.0443 143.789 35.1419 144.375 35.207 144.766C35.7279 146.849 36.8346 147.891 38.5273 147.891C39.569 147.891 40.4805 147.5 41.2617 146.719C42.8893 144.896 43.7031 139.199 43.7031 129.629V92.5195H34.9141V89.8828H64.6992V92.5195Z" fill="#F5ECED"/>
<path d="M246.316 178.676C241.108 178.871 238.276 184.372 237.82 195.18L244.07 195.473C246.674 195.603 248.628 195.44 249.93 194.984C251.753 194.268 252.664 192.38 252.664 189.32C252.599 182.354 250.483 178.806 246.316 178.676ZM264.578 209.535C264.188 210.577 263.667 211.586 263.016 212.562C259.695 217.901 254.227 220.57 246.609 220.57C242.312 220.57 238.471 219.691 235.086 217.934C227.99 214.223 224.441 207.647 224.441 198.207C224.441 192.413 226.004 187.562 229.129 183.656C233.23 178.643 238.96 176.137 246.316 176.137C250.353 176.137 253.966 176.82 257.156 178.188C262.82 180.727 265.652 184.763 265.652 190.297C265.652 191.404 265.457 192.413 265.066 193.324C263.374 196.97 257.286 198.63 246.805 198.305L237.82 198.012C237.885 201.788 238.211 205.043 238.797 207.777C240.294 214.418 243.647 217.738 248.855 217.738C250.483 217.738 252.078 217.445 253.641 216.859C257.547 215.427 260.411 212.725 262.234 208.754L264.578 209.535Z" fill="#F5ECED"/>
<path d="M164.383 217.055C164.773 217.055 165.132 217.087 165.457 217.152C166.303 217.283 166.727 218.096 166.727 219.594H144.559V217.055C145.079 217.055 145.568 217.022 146.023 216.957C148.823 216.632 150.223 214.971 150.223 211.977V180.141H144.559V177.602H161.941L162.43 184.73C165.294 179.066 169.852 176.202 176.102 176.137C177.143 176.137 178.185 176.267 179.227 176.527C183.198 177.699 185.965 180.596 187.527 185.219C190.652 179.229 195.372 176.202 201.688 176.137C203.966 176.137 206.082 176.755 208.035 177.992C212.267 180.661 214.383 185.186 214.383 191.566V217.055H217.605C217.996 217.055 218.387 217.087 218.777 217.152C219.624 217.283 220.047 218.096 220.047 219.594H197.781V217.055C198.823 217.055 199.637 216.957 200.223 216.762C201.46 216.241 202.078 214.646 202.078 211.977V190.395C202.078 188.767 201.883 187.27 201.492 185.902C200.451 182.582 198.53 180.922 195.73 180.922C195.079 180.922 194.428 181.052 193.777 181.312C190.717 182.615 188.96 185.967 188.504 191.371V192.055V217.055H190.164C190.555 217.055 190.945 217.087 191.336 217.152C192.182 217.283 192.605 218.096 192.605 219.594H171.902V217.055C172.944 217.055 173.758 216.957 174.344 216.762C175.581 216.241 176.199 214.646 176.199 211.977V190.395C176.199 188.637 175.971 187.042 175.516 185.609C174.474 182.615 172.749 181.117 170.34 181.117C169.493 181.117 168.647 181.345 167.801 181.801C164.806 183.363 163.113 186.716 162.723 191.859L162.625 217.055H164.383Z" fill="#F5ECED"/>
<path d="M108.035 198.402C108.035 204.522 108.426 208.982 109.207 211.781C110.379 215.948 112.983 218.031 117.02 218.031C119.298 218.031 121.154 217.348 122.586 215.98C125.06 213.507 126.297 207.517 126.297 198.012C126.297 192.087 125.906 187.758 125.125 185.023C123.953 180.792 121.284 178.676 117.117 178.676C114.643 178.676 112.723 179.424 111.355 180.922C109.142 183.461 108.035 189.288 108.035 198.402ZM117.605 176.137C123.204 176.137 127.99 177.667 131.961 180.727C137.104 184.828 139.676 190.525 139.676 197.816C139.676 203.285 138.048 208.103 134.793 212.27C130.431 217.803 124.409 220.57 116.727 220.57C111.128 220.57 106.31 218.878 102.273 215.492C97.1953 211.195 94.6562 205.368 94.6562 198.012C94.6562 192.803 96.1536 188.246 99.1484 184.34C103.445 178.871 109.598 176.137 117.605 176.137Z" fill="#F5ECED"/>
<path d="M51.2969 219.594H22V216.957H29.8125V163.637H22V161H51.2969V163.637H43.4844V187.953H68.2891V163.637H60.4766V161H89.7734V163.637H81.9609V216.957H87.1367C88.5039 217.087 89.3828 217.966 89.7734 219.594H60.4766V216.957H68.2891V190.883H43.4844V216.957H48.6602C50.0273 217.087 50.9062 217.966 51.2969 219.594Z" fill="#F5ECED"/>
<path fill-rule="evenodd" clip-rule="evenodd" d="M157.593 5.24376C158.686 7.13849 158.055 9.56028 156.175 10.6798L11.9547 96.5877C9.36024 98.1332 6.05446 96.3563 5.91215 93.3397L5.68072 88.4344C5.61018 86.9392 6.38033 85.5298 7.67672 84.7815L151.102 1.99945C153.015 0.895127 155.461 1.55094 156.565 3.46425L157.593 5.24376Z" fill="#F5ECED"/>
<path fill-rule="evenodd" clip-rule="evenodd" d="M148.992 5.24376C147.898 7.13849 148.53 9.56028 150.409 10.6798L294.63 96.5877C297.224 98.1332 300.53 96.3563 300.672 93.3397L300.904 88.4344C300.974 86.9392 300.204 85.5298 298.908 84.7815L155.483 1.99945C153.57 0.895127 151.123 1.55094 150.019 3.46425L148.992 5.24376Z" fill="#F5ECED"/>
</svg>
