<svg width="122" height="88" viewBox="0 0 122 88" fill="none" xmlns="http://www.w3.org/2000/svg">
<path d="M109.04 58.9698C109.2 58.9698 109.346 58.9832 109.48 59.0098C109.827 59.0632 110 59.3967 110 60.0102H100.156V58.9698C100.503 58.9698 100.81 58.9431 101.076 58.8898C102.01 58.7297 102.477 58.0628 102.477 56.889V43.8438H100.156V42.8034H107.559V58.9698H109.04ZM107.919 37.5613C107.919 38.0681 107.786 38.5483 107.519 39.0018C106.959 39.9889 106.092 40.4824 104.918 40.4824C104.438 40.4824 103.971 40.3624 103.517 40.1223C102.477 39.5887 101.957 38.7351 101.957 37.5613C101.957 37.0544 102.077 36.5742 102.317 36.1207C102.904 35.0803 103.771 34.5601 104.918 34.5601C105.425 34.5601 105.905 34.6934 106.358 34.9602C107.399 35.5204 107.919 36.3875 107.919 37.5613Z" fill="#1D2E49"/>
<path d="M88.2313 58.9302L93.3533 58.9702L93.2333 58.9302C94.8873 58.9035 95.9677 58.0498 96.4746 56.3691L97.3149 53.2079H98.3553L98.2753 60.0106H82.8691V59.1302L93.5534 43.8841H88.7915C87.6711 43.9108 86.7907 44.5511 86.1505 45.8049L84.7899 48.7661H83.7895L84.0696 42.8037H98.4754V43.644L88.2313 58.9302Z" fill="#1D2E49"/>
<path d="M80.6283 58.9702C80.815 58.9702 80.9751 58.9835 81.1085 59.0102C81.4286 59.0902 81.5887 59.4237 81.5887 60.0106H74.4658L74.2658 56.7293C74.1857 56.8893 74.1057 57.0494 74.0257 57.2095C72.7718 59.3437 70.9444 60.4108 68.5435 60.4108C64.782 60.3841 62.8745 58.2099 62.8212 53.8881V43.8441H60.5002V42.8037H67.9032V54.5684C67.9032 54.9419 67.9299 55.302 67.9832 55.6488C68.25 57.4362 69.1437 58.3299 70.6643 58.3299C71.0645 58.3299 71.4646 58.2366 71.8648 58.0498C73.1987 57.3829 73.959 56.009 74.1457 53.9282L74.1857 43.8441H72.2249V42.8037H79.2678V58.9702H80.6283Z" fill="#1D2E49"/>
<path d="M58.2193 58.97C58.3794 58.97 58.5261 58.9833 58.6595 59.01C59.0063 59.0634 59.1797 59.3968 59.1797 60.0104H48.0153V58.97C48.7622 58.97 49.3625 58.9166 49.816 58.8099C50.6963 58.5698 51.1365 57.9029 51.1365 56.8091V35.0404H48.0153V34H56.2185V58.97H58.2193Z" fill="#1D2E49"/>
<path d="M43.2133 60.4104C41.0791 60.277 39.7319 59.0632 39.1717 56.769C39.0383 57.1424 38.8649 57.5026 38.6515 57.8494C37.5844 59.5567 35.9171 60.4104 33.6495 60.4104C32.9025 60.4104 32.2223 60.317 31.6087 60.1303C29.5278 59.4634 28.4874 57.9428 28.4874 55.5685C28.5141 52.0737 31.9555 50.2597 38.8116 50.1263V47.5253C38.8116 46.7516 38.7582 46.0847 38.6515 45.5245C38.3847 44.0038 37.6244 43.2435 36.3706 43.2435C35.9971 43.2435 35.6636 43.3102 35.3702 43.4436C34.9167 43.7104 34.5432 44.3773 34.2497 45.4444C34.143 45.8179 34.063 46.0847 34.0096 46.2447C33.6095 47.3652 32.8358 47.9254 31.6887 47.9254C31.4219 47.9254 31.1685 47.8854 30.9284 47.8054C29.9413 47.5386 29.4478 46.885 29.4478 45.8446C29.4478 45.3911 29.5679 44.9642 29.808 44.5641C30.7417 42.9901 33.0226 42.2031 36.6507 42.2031C37.5844 42.2031 38.4514 42.2965 39.2517 42.4832C42.3463 43.2569 43.8936 45.311 43.8936 48.6457V57.009C43.8936 58.2896 44.187 58.9565 44.7739 59.0098C45.5476 58.9832 46.0144 58.0495 46.1745 56.2087L47.2149 56.2487C47.1349 57.0757 47.0148 57.756 46.8548 58.2896C46.3746 59.7035 45.1608 60.4104 43.2133 60.4104ZM35.7303 58.6897C35.9171 58.6897 36.1305 58.6497 36.3706 58.5697C37.491 58.1428 38.3047 56.9957 38.8116 55.1283V51.2467C37.6111 51.3001 36.624 51.4468 35.8504 51.6869C34.4098 52.2205 33.6895 53.3676 33.6895 55.1283C33.7162 57.4492 34.3965 58.6364 35.7303 58.6897Z" fill="#1D2E49"/>
<path d="M27.0868 37.0814H24.0856V52.0474C24.0856 53.8348 23.7922 55.3821 23.2053 56.6893C21.9514 59.437 19.5238 60.8109 15.9224 60.8109C14.4018 60.8109 13.1212 60.5441 12.0808 60.0106C10.6936 59.317 10 58.3566 10 57.1294C10 56.8627 10.04 56.5959 10.12 56.3291C10.4402 55.3954 11.1204 54.9285 12.1609 54.9285C12.8278 54.9285 13.3747 55.0619 13.8015 55.3287C14.3351 55.7022 14.6952 56.5158 14.882 57.7697C14.9353 58.0898 14.9753 58.3299 15.002 58.49C15.2154 59.3436 15.6689 59.7705 16.3625 59.7705C16.7894 59.7705 17.1629 59.6104 17.483 59.2903C18.1499 58.5433 18.4834 56.2091 18.4834 52.2875V37.0814H14.882V36.001H27.0868V37.0814Z" fill="#1D2E49"/>
<path d="M102.064 70.2545C99.9265 70.3346 98.7642 72.5925 98.5772 77.028L101.142 77.1483C102.211 77.2017 103.013 77.1349 103.547 76.9479C104.295 76.654 104.669 75.8791 104.669 74.6232C104.643 71.7642 103.774 70.3079 102.064 70.2545ZM109.559 82.9198C109.399 83.3473 109.185 83.7615 108.918 84.1623C107.555 86.3533 105.311 87.4489 102.184 87.4489C100.421 87.4489 98.8444 87.0882 97.4549 86.3667C94.5424 84.8437 93.0862 82.1449 93.0862 78.2705C93.0862 75.8924 93.7275 73.9018 95.01 72.2986C96.6934 70.2411 99.0448 69.2124 102.064 69.2124C103.721 69.2124 105.204 69.493 106.513 70.0541C108.838 71.0962 110 72.7528 110 75.024C110 75.4783 109.92 75.8924 109.76 76.2665C109.065 77.7628 106.566 78.4442 102.265 78.3106L98.5772 78.1904C98.6039 79.7401 98.7375 81.0761 98.978 82.1984C99.5925 84.9238 100.969 86.2866 103.106 86.2866C103.774 86.2866 104.429 86.1663 105.07 85.9258C106.673 85.338 107.849 84.2291 108.597 82.5992L109.559 82.9198Z" fill="#1D2E49"/>
<path d="M68.4369 86.006C68.5973 86.006 68.7442 86.0194 68.8778 86.0461C69.2252 86.0995 69.3989 86.4335 69.3989 87.0481H60.3007V86.006C60.5144 86.006 60.7148 85.9926 60.9019 85.9659C62.0508 85.8323 62.6253 85.1509 62.6253 83.9218V70.8557H60.3007V69.8136H67.4349L67.6353 72.7395C68.811 70.4148 70.6814 69.2391 73.2466 69.2124C73.6741 69.2124 74.1016 69.2658 74.5291 69.3727C76.159 69.8537 77.2946 71.0427 77.9359 72.9399C79.2185 70.4816 81.1557 69.2391 83.7476 69.2124C84.6828 69.2124 85.5512 69.4662 86.3528 69.9739C88.0896 71.0694 88.958 72.9265 88.958 75.5451V86.006H90.2806C90.4409 86.006 90.6013 86.0194 90.7616 86.0461C91.1089 86.0995 91.2826 86.4335 91.2826 87.0481H82.1443V86.006C82.5719 86.006 82.9059 85.9659 83.1464 85.8857C83.654 85.672 83.9079 85.0173 83.9079 83.9218V75.0641C83.9079 74.3961 83.8277 73.7815 83.6674 73.2204C83.2399 71.8577 82.4516 71.1763 81.3027 71.1763C81.0355 71.1763 80.7683 71.2298 80.5011 71.3367C79.2452 71.8711 78.5238 73.2471 78.3367 75.4649V75.7455V86.006H79.0181C79.1784 86.006 79.3387 86.0194 79.4991 86.0461C79.8464 86.0995 80.0201 86.4335 80.0201 87.0481H71.5231V86.006C71.9506 86.006 72.2846 85.9659 72.5251 85.8857C73.0328 85.672 73.2866 85.0173 73.2866 83.9218V75.0641C73.2866 74.3427 73.1931 73.688 73.0061 73.1002C72.5785 71.8711 71.8705 71.2565 70.8818 71.2565C70.5345 71.2565 70.1871 71.35 69.8397 71.5371C68.6106 72.1783 67.9159 73.5544 67.7556 75.6653L67.7155 86.006H68.4369Z" fill="#1D2E49"/>
<path d="M45.3106 78.3507C45.3106 80.8624 45.4709 82.6927 45.7915 83.8417C46.2725 85.5517 47.3413 86.4068 48.9979 86.4068C49.9331 86.4068 50.6947 86.1262 51.2825 85.5651C52.2979 84.5497 52.8056 82.0915 52.8056 78.1904C52.8056 75.7588 52.6452 73.9819 52.3246 72.8597C51.8436 71.1229 50.7481 70.2545 49.038 70.2545C48.0227 70.2545 47.2344 70.5618 46.6733 71.1763C45.7648 72.2184 45.3106 74.6099 45.3106 78.3507ZM49.2384 69.2124C51.5363 69.2124 53.5003 69.8403 55.1302 71.0962C57.2411 72.7795 58.2965 75.1175 58.2965 78.1102C58.2965 80.3547 57.6285 82.332 56.2925 84.0421C54.5023 86.3133 52.0307 87.4489 48.8777 87.4489C46.5798 87.4489 44.6025 86.7542 42.9458 85.3647C40.8617 83.6012 39.8196 81.2097 39.8196 78.1904C39.8196 76.0527 40.4341 74.1823 41.6633 72.5791C43.4268 70.3346 45.9518 69.2124 49.2384 69.2124Z" fill="#1D2E49"/>
<path d="M22.024 87.0481H10V85.9659H13.2064V64.0822H10V63H22.024V64.0822H18.8176V74.0621H28.998V64.0822H25.7916V63H37.8156V64.0822H34.6092V85.9659H36.7335C37.2946 86.0194 37.6553 86.3801 37.8156 87.0481H25.7916V85.9659H28.998V75.2645H18.8176V85.9659H20.9419C21.503 86.0194 21.8637 86.3801 22.024 87.0481Z" fill="#1D2E49"/>
<path fill-rule="evenodd" clip-rule="evenodd" d="M62.7539 2.40846C63.0329 2.87032 62.8868 3.45559 62.4236 3.73106L4.66424 38.0812C3.9943 38.4796 3.11675 38.0072 3.10207 37.2402L3.01545 32.7167C3.00867 32.3625 3.19957 32.036 3.51514 31.862L60.423 0.482661C60.9066 0.215983 61.5302 0.383004 61.8158 0.855715L62.7539 2.40846Z" fill="#1D2E49"/>
<path fill-rule="evenodd" clip-rule="evenodd" d="M59.1146 2.40846C58.8356 2.87032 58.9818 3.45559 59.445 3.73106L117.204 38.0812C117.874 38.4796 118.752 38.0072 118.766 37.2402L118.853 32.7167C118.86 32.3625 118.669 32.036 118.353 31.862L61.4456 0.482661C60.9619 0.215983 60.3383 0.383004 60.0527 0.855715L59.1146 2.40846Z" fill="#1D2E49"/>
</svg>
