<svg width="45" height="45" viewBox="0 0 45 45" fill="none" xmlns="http://www.w3.org/2000/svg">
<rect width="45" height="45" rx="16" fill="#7FA1C4"/>
<path d="M22.5 40.375C23.0523 40.375 23.5 39.9273 23.5 39.375C23.5 38.8227 23.0523 38.375 22.5 38.375V40.375ZM23.3828 6.64911C23.9343 6.6793 24.4058 6.25674 24.436 5.70528C24.4662 5.15382 24.0436 4.68229 23.4922 4.6521L23.3828 6.64911ZM22.0551 17.3199L21.348 16.6128L22.0551 17.3199ZM32.6456 6.72941L33.3527 7.43652L32.6456 6.72941ZM16.875 28.125L15.8851 27.9836C15.8391 28.3052 15.9522 28.629 16.1884 28.852C16.4246 29.0751 16.7544 29.1695 17.0728 29.1052L16.875 28.125ZM16.964 27.5022L15.974 27.3608V27.3608L16.964 27.5022ZM17.7899 27.9404L17.5921 26.9602L17.7899 27.9404ZM24.0023 25.7339L23.4298 24.9139L24.0023 25.7339ZM21.6825 26.9779L22.0487 27.9084L21.6825 26.9779ZM19.0857 20.5848L18.2561 20.0265L19.0857 20.5848ZM17.7943 23.1677L16.8499 22.839L17.7943 23.1677ZM30.7071 8.66789C30.3166 8.27737 29.6834 8.27737 29.2929 8.66789C28.9024 9.05842 28.9024 9.69158 29.2929 10.0821L30.7071 8.66789ZM34.5962 15.3854C34.9867 15.7759 35.6199 15.7759 36.0104 15.3854C36.4009 14.9949 36.4009 14.3617 36.0104 13.9712L34.5962 15.3854ZM30 30.875C29.4477 30.875 29 31.3227 29 31.875C29 32.4273 29.4477 32.875 30 32.875V30.875ZM40.1675 20.4261C40.0576 19.8848 39.5298 19.5351 38.9885 19.645C38.4473 19.7549 38.0976 20.2827 38.2075 20.8239L40.1675 20.4261ZM22.5 38.375C13.7325 38.375 6.625 31.2675 6.625 22.5H4.625C4.625 32.3721 12.6279 40.375 22.5 40.375V38.375ZM6.625 22.5C6.625 13.7325 13.7325 6.625 22.5 6.625V4.625C12.6279 4.625 4.625 12.6279 4.625 22.5H6.625ZM22.5 6.625C22.7963 6.625 23.0907 6.63311 23.3828 6.64911L23.4922 4.6521C23.1636 4.63411 22.8328 4.625 22.5 4.625V6.625ZM22.7622 18.027L33.3527 7.43652L31.9385 6.0223L21.348 16.6128L22.7622 18.027ZM37.2418 11.3256L26.2506 22.3168L27.6648 23.731L38.656 12.7398L37.2418 11.3256ZM17.865 28.2664L17.9539 27.6436L15.974 27.3608L15.8851 27.9836L17.865 28.2664ZM17.5921 26.9602L16.6772 27.1448L17.0728 29.1052L17.9877 28.9207L17.5921 26.9602ZM26.2506 22.3168C24.7982 23.7691 24.1542 24.4082 23.4298 24.9139L24.5747 26.5538C25.477 25.9239 26.261 25.1348 27.6648 23.731L26.2506 22.3168ZM17.9877 28.9207C19.9337 28.528 21.0248 28.3115 22.0487 27.9084L21.3162 26.0474C20.4941 26.371 19.6054 26.5539 17.5921 26.9602L17.9877 28.9207ZM23.4298 24.9139C22.772 25.3732 22.0627 25.7536 21.3162 26.0474L22.0487 27.9084C22.9408 27.5573 23.7886 27.1026 24.5747 26.5538L23.4298 24.9139ZM21.348 16.6128C19.8007 18.16 18.9308 19.0239 18.2561 20.0265L19.9154 21.1431C20.457 20.3383 21.1612 19.628 22.7622 18.027L21.348 16.6128ZM17.9539 27.6436C18.2741 25.4022 18.4198 24.4126 18.7387 23.4964L16.8499 22.839C16.4526 23.9803 16.2835 25.1946 15.974 27.3608L17.9539 27.6436ZM18.2561 20.0265C17.6685 20.8997 17.1958 21.845 16.8499 22.839L18.7387 23.4964C19.0282 22.6647 19.4237 21.8737 19.9154 21.1431L18.2561 20.0265ZM37.2418 7.43652C38.3157 8.51046 38.3157 10.2517 37.2418 11.3256L38.656 12.7398C40.511 10.8848 40.511 7.87729 38.656 6.0223L37.2418 7.43652ZM38.656 6.0223C36.801 4.16731 33.7935 4.16732 31.9385 6.0223L33.3527 7.43652C34.4266 6.36258 36.1678 6.36258 37.2418 7.43652L38.656 6.0223ZM29.2929 10.0821L34.5962 15.3854L36.0104 13.9712L30.7071 8.66789L29.2929 10.0821ZM38.375 22.5C38.375 27.1254 34.6254 30.875 30 30.875V32.875C35.73 32.875 40.375 28.23 40.375 22.5H38.375ZM38.2075 20.8239C38.3172 21.3647 38.375 21.9251 38.375 22.5H40.375C40.375 21.7907 40.3037 21.097 40.1675 20.4261L38.2075 20.8239Z" fill="#1D2E49"/>
</svg>
