<svg width="45" height="46" viewBox="0 0 45 46" fill="none" xmlns="http://www.w3.org/2000/svg">
<rect y="0.5" width="45" height="45" rx="16" fill="#7FA1C4"/>
<path d="M22.2944 17.5809L12.2364 7.5229C11.4938 6.78036 11.1226 6.40909 10.6944 6.26999C10.3179 6.14763 9.9122 6.14763 9.53562 6.26999C9.10751 6.40909 8.73624 6.78036 7.99371 7.52289L6.93305 8.58355C6.19052 9.32609 5.81925 9.69735 5.68015 10.1255C5.55779 10.502 5.55779 10.9077 5.68015 11.2843C5.81925 11.7124 6.19053 12.0837 6.93305 12.8262L16.9911 22.8842M27.5977 22.8842L37.6553 32.9418C38.3978 33.6844 38.7691 34.0556 38.9082 34.4837C39.0305 34.8603 39.0305 35.266 38.9082 35.6426C38.7691 36.0707 38.3978 36.4419 37.6553 37.1845L36.5946 38.2451C35.8521 38.9877 35.4808 39.3589 35.0527 39.498C34.6761 39.6204 34.2705 39.6204 33.8939 39.498C33.4658 39.3589 33.0945 38.9877 32.352 38.2451L22.2944 28.1875M15.0005 13.6238L16.6677 11.9543M31.8755 30.4992L33.5522 28.8387M29.062 10.8157L34.3653 16.119M5.625 39.8778L5.71397 39.255C6.0288 37.0511 6.18622 35.9492 6.54429 34.9205C6.86202 34.0076 7.29608 33.1395 7.83574 32.3376C8.4439 31.4339 9.23098 30.6468 10.8051 29.0726L32.6451 7.23263C34.1096 5.76816 36.484 5.76816 37.9484 7.23263C39.4129 8.69709 39.4129 11.0715 37.9484 12.5359L15.7077 34.7767C14.2796 36.2047 13.5656 36.9188 12.7522 37.4866C12.0303 37.9907 11.2517 38.4082 10.4325 38.7307C9.50945 39.094 8.51954 39.2937 6.53987 39.6932L5.625 39.8778Z" stroke="#1D2E49" stroke-width="2" stroke-linecap="round" stroke-linejoin="round"/>
</svg>
