<svg width="32" height="33" viewBox="0 0 32 33" fill="none" xmlns="http://www.w3.org/2000/svg">
<path d="M4 7.6885C4 19.1024 13.2528 28.3552 24.6667 28.3552C25.1816 28.3552 25.6922 28.3363 26.1977 28.2993C26.7778 28.2568 27.0679 28.2356 27.332 28.0836C27.5506 27.9576 27.7581 27.7345 27.8677 27.5072C28 27.2327 28 26.9127 28 26.2725V22.5161C28 21.9777 28 21.7086 27.9114 21.4778C27.8331 21.274 27.706 21.0925 27.5412 20.9493C27.3546 20.7871 27.1017 20.6952 26.5957 20.5112L26.5957 20.5112L22.3199 18.9564C21.7313 18.7423 21.437 18.6353 21.1577 18.6534C20.9115 18.6695 20.6746 18.7535 20.4733 18.8962C20.245 19.058 20.0838 19.3266 19.7616 19.8636L19.7616 19.8637L18.6667 21.6885C15.1335 20.0884 12.2692 17.2203 10.6667 13.6885L12.4915 12.5936C13.0286 12.2713 13.2971 12.1102 13.459 11.8819C13.6017 11.6806 13.6857 11.4437 13.7017 11.1974C13.7199 10.9182 13.6129 10.6239 13.3988 10.0352L11.844 5.75945C11.66 5.25351 11.568 5.00054 11.4059 4.81396C11.2627 4.64915 11.0812 4.52203 10.8774 4.44377C10.6466 4.35516 10.3774 4.35516 9.83909 4.35516H6.08268C5.4425 4.35516 5.12241 4.35516 4.84797 4.4875C4.62067 4.59711 4.39752 4.80452 4.2716 5.02321C4.11958 5.28725 4.09833 5.57732 4.05585 6.15746C4.01883 6.66298 4 7.17354 4 7.6885Z" stroke="#6582AE" stroke-width="2" stroke-linecap="round" stroke-linejoin="round"/>
</svg>
