<svg width="45" height="46" viewBox="0 0 45 46" fill="none" xmlns="http://www.w3.org/2000/svg">
<rect width="45" height="46" rx="16" fill="#7FA1C4"/>
<path d="M15.2846 30.3792L39.375 7.66667M23.1091 23L15.2812 15.6208M39.375 38.3333L28.125 27.7283M16.875 11.5C16.875 14.6756 14.3566 17.25 11.25 17.25C8.1434 17.25 5.625 14.6756 5.625 11.5C5.625 8.32436 8.1434 5.75 11.25 5.75C14.3566 5.75 16.875 8.32436 16.875 11.5ZM16.875 34.5C16.875 37.6756 14.3566 40.25 11.25 40.25C8.1434 40.25 5.625 37.6756 5.625 34.5C5.625 31.3244 8.1434 28.75 11.25 28.75C14.3566 28.75 16.875 31.3244 16.875 34.5Z" stroke="#1D2E49" stroke-width="2" stroke-linecap="round" stroke-linejoin="round"/>
</svg>
